<?xml version="1.0" encoding="utf-8" ?>
<svg baseProfile="full" height="51" version="1.1" width="51" xmlns="http://www.w3.org/2000/svg" xmlns:ev="http://www.w3.org/2001/xml-events" xmlns:xlink="http://www.w3.org/1999/xlink"><defs /><path d="M 1,1 L 1,2  M 1,1 L 2,1  M 1,2 L 1,3  M 2,1 L 3,1  M 3,1 L 4,1  M 4,1 L 5,1  M 5,1 L 6,1  M 6,1 L 7,1  M 7,1 L 7,2  M 7,2 L 7,3  M 9,1 L 9,2  M 9,1 L 10,1  M 9,2 L 9,3  M 10,1 L 11,1  M 11,1 L 11,2  M 11,1 L 12,1  M 11,2 L 11,3  M 12,1 L 13,1  M 13,1 L 13,2  M 13,2 L 13,3  M 15,1 L 16,1  M 16,1 L 17,1  M 17,1 L 17,2  M 17,1 L 18,1  M 17,2 L 17,3  M 18,1 L 19,1  M 19,1 L 20,1  M 20,1 L 21,1  M 21,1 L 22,1  M 22,1 L 23,1  M 23,1 L 23,2  M 23,2 L 23,3  M 25,1 L 25,2  M 25,1 L 26,1  M 25,2 L 25,3  M 26,1 L 27,1  M 27,1 L 27,2  M 27,2 L 27,3  M 29,1 L 30,1  M 30,1 L 31,1  M 31,1 L 31,2  M 31,2 L 31,3  M 36,1 L 37,1  M 37,1 L 38,1  M 38,1 L 39,1  M 39,1 L 40,1  M 40,1 L 41,1  M 41,1 L 42,1  M 42,1 L 43,1  M 43,1 L 43,2  M 43,1 L 44,1  M 43,2 L 43,3  M 44,1 L 45,1  M 45,1 L 46,1  M 46,1 L 47,1  M 47,1 L 48,1  M 48,1 L 49,1  M 1,3 L 1,4  M 7,3 L 8,3  M 9,3 L 8,3  M 11,3 L 11,4  M 13,3 L 14,3  M 17,3 L 16,3  M 23,3 L 22,3  M 27,3 L 27,4  M 27,3 L 28,3  M 31,3 L 30,3  M 43,3 L 42,3  M 43,3 L 44,3  M 1,4 L 1,5  M 3,3 L 4,3  M 4,3 L 5,3  M 5,3 L 5,4  M 5,4 L 5,5  M 11,4 L 11,5  M 14,3 L 15,3  M 15,3 L 16,3  M 19,3 L 19,4  M 19,3 L 20,3  M 19,4 L 19,5  M 20,3 L 21,3  M 21,3 L 22,3  M 27,4 L 27,5  M 28,3 L 29,3  M 29,3 L 30,3  M 39,3 L 40,3  M 40,3 L 41,3  M 41,3 L 42,3  M 44,3 L 45,3  M 45,3 L 46,3  M 46,3 L 47,3  M 47,3 L 48,3  M 48,3 L 49,3  M 49,3 L 49,4  M 49,4 L 49,5  M 1,5 L 2,5  M 5,5 L 4,5  M 11,5 L 12,5  M 19,5 L 18,5  M 27,5 L 26,5  M 49,5 L 48,5  M 49,5 L 49,6  M 2,5 L 3,5  M 3,5 L 4,5  M 7,5 L 7,6  M 7,5 L 8,5  M 7,6 L 7,7  M 8,5 L 9,5  M 9,5 L 9,6  M 9,6 L 9,7  M 12,5 L 13,5  M 13,5 L 13,6  M 13,6 L 13,7  M 15,5 L 16,5  M 16,5 L 17,5  M 17,5 L 17,6  M 17,5 L 18,5  M 17,6 L 17,7  M 21,5 L 21,6  M 21,5 L 22,5  M 21,6 L 21,7  M 22,5 L 23,5  M 23,5 L 24,5  M 24,5 L 25,5  M 25,5 L 26,5  M 29,5 L 30,5  M 30,5 L 31,5  M 31,5 L 31,6  M 31,6 L 31,7  M 47,5 L 47,6  M 47,5 L 48,5  M 47,6 L 47,7  M 49,6 L 49,7  M 7,7 L 6,7  M 9,7 L 10,7  M 13,7 L 14,7  M 17,7 L 17,8  M 21,7 L 21,8  M 21,7 L 22,7  M 31,7 L 30,7  M 31,7 L 32,7  M 47,7 L 47,8  M 49,7 L 49,8  M 1,7 L 1,8  M 1,7 L 2,7  M 1,8 L 1,9  M 2,7 L 3,7  M 3,7 L 4,7  M 4,7 L 5,7  M 5,7 L 5,8  M 5,7 L 6,7  M 5,8 L 5,9  M 10,7 L 11,7  M 14,7 L 15,7  M 15,7 L 15,8  M 15,8 L 15,9  M 17,8 L 17,9  M 19,7 L 19,8  M 19,8 L 19,9  M 21,8 L 21,9  M 22,7 L 23,7  M 23,7 L 24,7  M 24,7 L 25,7  M 25,7 L 26,7  M 26,7 L 27,7  M 27,7 L 27,8  M 27,8 L 27,9  M 29,7 L 29,8  M 29,7 L 30,7  M 29,8 L 29,9  M 32,7 L 33,7  M 33,7 L 34,7  M 34,7 L 35,7  M 35,7 L 35,8  M 35,8 L 35,9  M 41,7 L 41,8  M 41,7 L 42,7  M 41,8 L 41,9  M 42,7 L 43,7  M 47,8 L 47,9  M 49,8 L 49,9  M 1,9 L 2,9  M 5,9 L 6,9  M 15,9 L 14,9  M 17,9 L 17,10  M 19,9 L 19,10  M 19,9 L 20,9  M 21,9 L 20,9  M 27,9 L 26,9  M 29,9 L 29,10  M 35,9 L 36,9  M 41,9 L 42,9  M 47,9 L 47,10  M 2,9 L 3,9  M 3,9 L 3,10  M 3,10 L 3,11  M 6,9 L 7,9  M 7,9 L 7,10  M 7,10 L 7,11  M 9,9 L 9,10  M 9,9 L 10,9  M 9,10 L 9,11  M 10,9 L 11,9  M 11,9 L 12,9  M 12,9 L 13,9  M 13,9 L 14,9  M 17,10 L 17,11  M 19,10 L 19,11  M 23,9 L 23,10  M 23,9 L 24,9  M 23,10 L 23,11  M 24,9 L 25,9  M 25,9 L 26,9  M 29,10 L 29,11  M 31,9 L 31,10  M 31,9 L 32,9  M 31,10 L 31,11  M 32,9 L 33,9  M 33,9 L 33,10  M 33,10 L 33,11  M 36,9 L 37,9  M 37,9 L 37,10  M 37,10 L 37,11  M 39,9 L 39,10  M 39,10 L 39,11  M 42,9 L 43,9  M 43,9 L 43,10  M 43,10 L 43,11  M 47,10 L 47,11  M 3,11 L 2,11  M 3,11 L 4,11  M 7,11 L 7,12  M 9,11 L 9,12  M 17,11 L 17,12  M 19,11 L 19,12  M 19,11 L 20,11  M 23,11 L 23,12  M 29,11 L 29,12  M 31,11 L 31,12  M 33,11 L 33,12  M 37,11 L 36,11  M 37,11 L 38,11  M 39,11 L 38,11  M 39,11 L 40,11  M 43,11 L 43,12  M 47,11 L 48,11  M 1,11 L 1,12  M 1,11 L 2,11  M 1,12 L 1,13  M 4,11 L 5,11  M 7,12 L 7,13  M 9,12 L 9,13  M 11,11 L 12,11  M 12,11 L 13,11  M 13,11 L 14,11  M 14,11 L 15,11  M 15,11 L 15,12  M 15,12 L 15,13  M 17,12 L 17,13  M 19,12 L 19,13  M 20,11 L 21,11  M 21,11 L 21,12  M 21,12 L 21,13  M 23,12 L 23,13  M 25,11 L 25,12  M 25,11 L 26,11  M 25,12 L 25,13  M 26,11 L 27,11  M 27,11 L 27,12  M 27,12 L 27,13  M 29,12 L 29,13  M 31,12 L 31,13  M 33,12 L 33,13  M 35,11 L 35,12  M 35,11 L 36,11  M 35,12 L 35,13  M 40,11 L 41,11  M 41,11 L 41,12  M 41,12 L 41,13  M 43,12 L 43,13  M 48,11 L 49,11  M 49,11 L 49,12  M 49,12 L 49,13  M 1,13 L 1,14  M 1,13 L 2,13  M 7,13 L 6,13  M 9,13 L 9,14  M 15,13 L 16,13  M 17,13 L 16,13  M 21,13 L 21,14  M 23,13 L 24,13  M 25,13 L 24,13  M 27,13 L 28,13  M 29,13 L 28,13  M 29,13 L 30,13  M 31,13 L 30,13  M 31,13 L 31,14  M 35,13 L 35,14  M 41,13 L 42,13  M 43,13 L 42,13  M 49,13 L 48,13  M 1,14 L 1,15  M 2,13 L 3,13  M 5,13 L 5,14  M 5,13 L 6,13  M 5,14 L 5,15  M 9,14 L 9,15  M 11,13 L 11,14  M 11,13 L 12,13  M 11,14 L 11,15  M 12,13 L 13,13  M 13,13 L 13,14  M 13,14 L 13,15  M 21,14 L 21,15  M 31,14 L 31,15  M 35,14 L 35,15  M 37,13 L 37,14  M 37,13 L 38,13  M 37,14 L 37,15  M 38,13 L 39,13  M 47,13 L 47,14  M 47,13 L 48,13  M 47,14 L 47,15  M 5,15 L 4,15  M 5,15 L 5,16  M 9,15 L 8,15  M 9,15 L 10,15  M 11,15 L 10,15  M 13,15 L 13,16  M 21,15 L 20,15  M 31,15 L 31,16  M 35,15 L 34,15  M 37,15 L 37,16  M 37,15 L 38,15  M 47,15 L 48,15  M 3,15 L 3,16  M 3,15 L 4,15  M 3,16 L 3,17  M 5,16 L 5,17  M 7,15 L 7,16  M 7,15 L 8,15  M 7,16 L 7,17  M 13,16 L 13,17  M 15,15 L 16,15  M 16,15 L 17,15  M 17,15 L 17,16  M 17,16 L 17,17  M 19,15 L 19,16  M 19,15 L 20,15  M 19,16 L 19,17  M 23,15 L 23,16  M 23,15 L 24,15  M 23,16 L 23,17  M 24,15 L 25,15  M 25,15 L 26,15  M 26,15 L 27,15  M 27,15 L 28,15  M 28,15 L 29,15  M 29,15 L 29,16  M 29,16 L 29,17  M 31,16 L 31,17  M 33,15 L 33,16  M 33,15 L 34,15  M 33,16 L 33,17  M 37,16 L 37,17  M 38,15 L 39,15  M 39,15 L 40,15  M 40,15 L 41,15  M 41,15 L 42,15  M 42,15 L 43,15  M 43,15 L 44,15  M 48,15 L 49,15  M 49,15 L 49,16  M 49,16 L 49,17  M 3,17 L 2,17  M 7,17 L 7,18  M 13,17 L 14,17  M 17,17 L 17,18  M 19,17 L 20,17  M 23,17 L 24,17  M 29,17 L 28,17  M 33,17 L 33,18  M 37,17 L 36,17  M 37,17 L 38,17  M 49,17 L 48,17  M 1,17 L 1,18  M 1,17 L 2,17  M 1,18 L 1,19  M 7,18 L 7,19  M 9,17 L 10,17  M 10,17 L 11,17  M 11,17 L 11,18  M 11,18 L 11,19  M 14,17 L 15,17  M 15,17 L 15,18  M 15,18 L 15,19  M 17,18 L 17,19  M 20,17 L 21,17  M 21,17 L 21,18  M 21,18 L 21,19  M 24,17 L 25,17  M 25,17 L 25,18  M 25,18 L 25,19  M 27,17 L 27,18  M 27,17 L 28,17  M 27,18 L 27,19  M 33,18 L 33,19  M 35,17 L 35,18  M 35,17 L 36,17  M 35,18 L 35,19  M 38,17 L 39,17  M 41,17 L 41,18  M 41,17 L 42,17  M 41,18 L 41,19  M 42,17 L 43,17  M 43,17 L 43,18  M 43,18 L 43,19  M 47,17 L 48,17  M 1,19 L 1,20  M 7,19 L 6,19  M 11,19 L 10,19  M 11,19 L 12,19  M 15,19 L 16,19  M 17,19 L 16,19  M 17,19 L 18,19  M 21,19 L 20,19  M 25,19 L 24,19  M 27,19 L 28,19  M 33,19 L 32,19  M 35,19 L 35,20  M 41,19 L 40,19  M 1,20 L 1,21  M 3,19 L 3,20  M 3,20 L 3,21  M 5,19 L 5,20  M 5,19 L 6,19  M 5,20 L 5,21  M 9,19 L 9,20  M 9,19 L 10,19  M 9,20 L 9,21  M 12,19 L 13,19  M 13,19 L 13,20  M 13,20 L 13,21  M 18,19 L 19,19  M 19,19 L 20,19  M 23,19 L 23,20  M 23,19 L 24,19  M 23,20 L 23,21  M 28,19 L 29,19  M 29,19 L 29,20  M 29,20 L 29,21  M 31,19 L 31,20  M 31,19 L 32,19  M 31,20 L 31,21  M 35,20 L 35,21  M 37,19 L 37,20  M 37,19 L 38,19  M 37,20 L 37,21  M 38,19 L 39,19  M 39,19 L 40,19  M 1,21 L 1,22  M 3,21 L 3,22  M 5,21 L 6,21  M 9,21 L 8,21  M 13,21 L 13,22  M 23,21 L 24,21  M 29,21 L 29,22  M 31,21 L 32,21  M 35,21 L 35,22  M 35,21 L 36,21  M 37,21 L 36,21  M 37,21 L 37,22  M 47,20 L 47,21  M 47,21 L 46,21  M 1,22 L 1,23  M 3,22 L 3,23  M 6,21 L 7,21  M 7,21 L 8,21  M 11,21 L 11,22  M 11,22 L 11,23  M 13,22 L 13,23  M 15,21 L 15,22  M 15,21 L 16,21  M 15,22 L 15,23  M 16,21 L 17,21  M 19,21 L 19,22  M 19,21 L 20,21  M 19,22 L 19,23  M 20,21 L 21,21  M 21,21 L 21,22  M 21,22 L 21,23  M 24,21 L 25,21  M 25,21 L 26,21  M 26,21 L 27,21  M 27,21 L 27,22  M 27,22 L 27,23  M 29,22 L 29,23  M 32,21 L 33,21  M 33,21 L 33,22  M 33,22 L 33,23  M 35,22 L 35,23  M 37,22 L 37,23  M 39,21 L 40,21  M 40,21 L 41,21  M 41,21 L 42,21  M 42,21 L 43,21  M 43,21 L 43,22  M 43,21 L 44,21  M 43,22 L 43,23  M 44,21 L 45,21  M 45,21 L 46,21  M 1,23 L 1,24  M 3,23 L 3,24  M 11,23 L 12,23  M 13,23 L 12,23  M 15,23 L 15,24  M 15,23 L 16,23  M 19,23 L 19,24  M 21,23 L 21,24  M 27,23 L 26,23  M 29,23 L 29,24  M 33,23 L 33,24  M 35,23 L 35,24  M 37,23 L 37,24  M 43,23 L 44,23  M 1,24 L 1,25  M 3,24 L 3,25  M 5,23 L 5,24  M 5,23 L 6,23  M 5,24 L 5,25  M 6,23 L 7,23  M 7,23 L 7,24  M 7,24 L 7,25  M 9,23 L 9,24  M 9,24 L 9,25  M 15,24 L 15,25  M 16,23 L 17,23  M 17,23 L 17,24  M 17,24 L 17,25  M 19,24 L 19,25  M 21,24 L 21,25  M 23,23 L 23,24  M 23,23 L 24,23  M 23,24 L 23,25  M 24,23 L 25,23  M 25,23 L 25,24  M 25,23 L 26,23  M 25,24 L 25,25  M 29,24 L 29,25  M 31,23 L 31,24  M 31,24 L 31,25  M 33,24 L 33,25  M 35,24 L 35,25  M 37,24 L 37,25  M 39,23 L 39,24  M 39,23 L 40,23  M 39,24 L 39,25  M 40,23 L 41,23  M 41,23 L 41,24  M 41,24 L 41,25  M 44,23 L 45,23  M 45,23 L 45,24  M 45,24 L 45,25  M 1,25 L 2,25  M 3,25 L 2,25  M 3,25 L 3,26  M 5,25 L 5,26  M 7,25 L 7,26  M 9,25 L 9,26  M 9,25 L 10,25  M 15,25 L 14,25  M 17,25 L 17,26  M 21,25 L 22,25  M 23,25 L 22,25  M 25,25 L 25,26  M 29,25 L 28,25  M 31,25 L 31,26  M 31,25 L 32,25  M 33,25 L 32,25  M 37,25 L 37,26  M 39,25 L 39,26  M 41,25 L 42,25  M 45,25 L 45,26  M 49,24 L 49,25  M 49,25 L 49,26  M 3,26 L 3,27  M 5,26 L 5,27  M 7,26 L 7,27  M 9,26 L 9,27  M 10,25 L 11,25  M 11,25 L 12,25  M 12,25 L 13,25  M 13,25 L 14,25  M 17,26 L 17,27  M 25,26 L 25,27  M 27,25 L 27,26  M 27,25 L 28,25  M 27,26 L 27,27  M 31,26 L 31,27  M 37,26 L 37,27  M 39,26 L 39,27  M 42,25 L 43,25  M 43,25 L 43,26  M 43,26 L 43,27  M 45,26 L 45,27  M 49,26 L 49,27  M 3,27 L 2,27  M 3,27 L 4,27  M 5,27 L 4,27  M 5,27 L 5,28  M 9,27 L 10,27  M 17,27 L 18,27  M 25,27 L 25,28  M 27,27 L 28,27  M 31,27 L 31,28  M 39,27 L 40,27  M 43,27 L 43,28  M 43,27 L 44,27  M 45,27 L 44,27  M 1,27 L 2,27  M 5,28 L 5,29  M 10,27 L 11,27  M 11,27 L 12,27  M 12,27 L 13,27  M 13,27 L 14,27  M 14,27 L 15,27  M 15,27 L 15,28  M 15,28 L 15,29  M 18,27 L 19,27  M 19,27 L 19,28  M 19,28 L 19,29  M 21,27 L 21,28  M 21,27 L 22,27  M 21,28 L 21,29  M 22,27 L 23,27  M 23,27 L 23,28  M 23,28 L 23,29  M 25,28 L 25,29  M 28,27 L 29,27  M 29,27 L 29,28  M 29,28 L 29,29  M 31,28 L 31,29  M 33,27 L 33,28  M 33,27 L 34,27  M 33,28 L 33,29  M 34,27 L 35,27  M 35,27 L 35,28  M 35,28 L 35,29  M 40,27 L 41,27  M 41,27 L 41,28  M 41,28 L 41,29  M 43,28 L 43,29  M 5,29 L 6,29  M 15,29 L 14,29  M 15,29 L 16,29  M 19,29 L 20,29  M 21,29 L 20,29  M 23,29 L 23,30  M 23,29 L 24,29  M 25,29 L 24,29  M 29,29 L 29,30  M 31,29 L 32,29  M 33,29 L 32,29  M 33,29 L 33,30  M 41,29 L 41,30  M 43,29 L 43,30  M 1,29 L 1,30  M 1,29 L 2,29  M 1,30 L 1,31  M 2,29 L 3,29  M 6,29 L 7,29  M 7,29 L 7,30  M 7,29 L 8,29  M 7,30 L 7,31  M 8,29 L 9,29  M 9,29 L 9,30  M 9,30 L 9,31  M 11,29 L 11,30  M 11,29 L 12,29  M 11,30 L 11,31  M 12,29 L 13,29  M 13,29 L 13,30  M 13,29 L 14,29  M 13,30 L 13,31  M 16,29 L 17,29  M 23,30 L 23,31  M 27,29 L 27,30  M 27,30 L 27,31  M 29,30 L 29,31  M 33,30 L 33,31  M 37,29 L 37,30  M 37,29 L 38,29  M 37,30 L 37,31  M 38,29 L 39,29  M 39,29 L 39,30  M 39,30 L 39,31  M 41,30 L 41,31  M 43,30 L 43,31  M 45,29 L 46,29  M 1,31 L 1,32  M 7,31 L 6,31  M 9,31 L 9,32  M 11,31 L 11,32  M 13,31 L 13,32  M 23,31 L 22,31  M 27,31 L 26,31  M 29,31 L 30,31  M 33,31 L 34,31  M 37,31 L 37,32  M 39,31 L 40,31  M 41,31 L 40,31  M 43,31 L 44,31  M 1,32 L 1,33  M 3,31 L 3,32  M 3,31 L 4,31  M 3,32 L 3,33  M 4,31 L 5,31  M 5,31 L 6,31  M 9,32 L 9,33  M 11,32 L 11,33  M 13,32 L 13,33  M 15,31 L 16,31  M 16,31 L 17,31  M 17,31 L 18,31  M 18,31 L 19,31  M 19,31 L 20,31  M 20,31 L 21,31  M 21,31 L 22,31  M 25,31 L 25,32  M 25,31 L 26,31  M 25,32 L 25,33  M 30,31 L 31,31  M 31,31 L 31,32  M 31,32 L 31,33  M 34,31 L 35,31  M 35,31 L 35,32  M 35,32 L 35,33  M 37,32 L 37,33  M 44,31 L 45,31  M 45,31 L 45,32  M 45,32 L 45,33  M 1,33 L 1,34  M 1,33 L 2,33  M 3,33 L 2,33  M 9,33 L 10,33  M 11,33 L 10,33  M 13,33 L 14,33  M 25,33 L 25,34  M 31,33 L 30,33  M 35,33 L 34,33  M 35,33 L 35,34  M 37,33 L 37,34  M 45,33 L 45,34  M 1,34 L 1,35  M 5,33 L 6,33  M 6,33 L 7,33  M 7,33 L 7,34  M 7,34 L 7,35  M 14,33 L 15,33  M 15,33 L 16,33  M 16,33 L 17,33  M 17,33 L 17,34  M 17,34 L 17,35  M 19,33 L 19,34  M 19,33 L 20,33  M 19,34 L 19,35  M 20,33 L 21,33  M 21,33 L 22,33  M 22,33 L 23,33  M 25,34 L 25,35  M 27,33 L 27,34  M 27,33 L 28,33  M 27,34 L 27,35  M 28,33 L 29,33  M 29,33 L 30,33  M 33,33 L 33,34  M 33,33 L 34,33  M 33,34 L 33,35  M 35,34 L 35,35  M 37,34 L 37,35  M 39,33 L 39,34  M 39,34 L 39,35  M 41,33 L 41,34  M 41,33 L 42,33  M 41,34 L 41,35  M 42,33 L 43,33  M 43,33 L 43,34  M 43,34 L 43,35  M 45,34 L 45,35  M 1,35 L 2,35  M 7,35 L 8,35  M 17,35 L 17,36  M 19,35 L 20,35  M 25,35 L 26,35  M 27,35 L 26,35  M 27,35 L 28,35  M 33,35 L 33,36  M 35,35 L 36,35  M 37,35 L 36,35  M 37,35 L 37,36  M 39,35 L 40,35  M 41,35 L 40,35  M 43,35 L 43,36  M 2,35 L 3,35  M 3,35 L 4,35  M 4,35 L 5,35  M 5,35 L 5,36  M 5,36 L 5,37  M 8,35 L 9,35  M 9,35 L 9,36  M 9,35 L 10,35  M 9,36 L 9,37  M 10,35 L 11,35  M 13,35 L 13,36  M 13,35 L 14,35  M 13,36 L 13,37  M 14,35 L 15,35  M 15,35 L 15,36  M 15,36 L 15,37  M 17,36 L 17,37  M 20,35 L 21,35  M 21,35 L 22,35  M 22,35 L 23,35  M 23,35 L 23,36  M 23,36 L 23,37  M 28,35 L 29,35  M 29,35 L 29,36  M 29,36 L 29,37  M 31,35 L 31,36  M 31,36 L 31,37  M 33,36 L 33,37  M 37,36 L 37,37  M 43,36 L 43,37  M 5,37 L 6,37  M 9,37 L 9,38  M 13,37 L 12,37  M 15,37 L 16,37  M 17,37 L 16,37  M 23,37 L 23,38  M 29,37 L 29,38  M 31,37 L 31,38  M 33,37 L 34,37  M 37,37 L 37,38  M 43,37 L 42,37  M 49,36 L 49,37  M 1,37 L 1,38  M 1,37 L 2,37  M 1,38 L 1,39  M 2,37 L 3,37  M 6,37 L 7,37  M 7,37 L 7,38  M 7,38 L 7,39  M 9,38 L 9,39  M 11,37 L 11,38  M 11,37 L 12,37  M 11,38 L 11,39  M 19,37 L 19,38  M 19,37 L 20,37  M 19,38 L 19,39  M 20,37 L 21,37  M 21,37 L 21,38  M 21,38 L 21,39  M 23,38 L 23,39  M 25,37 L 25,38  M 25,37 L 26,37  M 25,38 L 25,39  M 26,37 L 27,37  M 29,38 L 29,39  M 31,38 L 31,39  M 34,37 L 35,37  M 35,37 L 35,38  M 35,38 L 35,39  M 37,38 L 37,39  M 39,37 L 39,38  M 39,37 L 40,37  M 39,38 L 39,39  M 40,37 L 41,37  M 41,37 L 42,37  M 45,37 L 45,38  M 45,37 L 46,37  M 45,38 L 45,39  M 1,39 L 1,40  M 7,39 L 6,39  M 9,39 L 9,40  M 11,39 L 12,39  M 19,39 L 18,39  M 21,39 L 21,40  M 23,39 L 23,40  M 25,39 L 25,40  M 29,39 L 29,40  M 31,39 L 32,39  M 35,39 L 34,39  M 35,39 L 35,40  M 39,39 L 40,39  M 45,39 L 44,39  M 1,40 L 1,41  M 3,39 L 3,40  M 3,39 L 4,39  M 3,40 L 3,41  M 4,39 L 5,39  M 5,39 L 6,39  M 9,40 L 9,41  M 12,39 L 13,39  M 13,39 L 14,39  M 14,39 L 15,39  M 15,39 L 16,39  M 16,39 L 17,39  M 17,39 L 18,39  M 21,40 L 21,41  M 23,40 L 23,41  M 25,40 L 25,41  M 27,39 L 27,40  M 27,40 L 27,41  M 29,40 L 29,41  M 32,39 L 33,39  M 33,39 L 34,39  M 35,40 L 35,41  M 40,39 L 41,39  M 41,39 L 41,40  M 41,40 L 41,41  M 43,39 L 44,39  M 1,41 L 2,41  M 3,41 L 2,41  M 3,41 L 4,41  M 9,41 L 8,41  M 9,41 L 10,41  M 21,41 L 20,41  M 23,41 L 23,42  M 25,41 L 25,42  M 27,41 L 27,42  M 29,41 L 30,41  M 35,41 L 36,41  M 41,41 L 42,41  M 4,41 L 5,41  M 5,41 L 5,42  M 5,41 L 6,41  M 5,42 L 5,43  M 6,41 L 7,41  M 7,41 L 8,41  M 10,41 L 11,41  M 11,41 L 12,41  M 12,41 L 13,41  M 15,41 L 15,42  M 15,41 L 16,41  M 15,42 L 15,43  M 16,41 L 17,41  M 17,41 L 17,42  M 17,42 L 17,43  M 19,41 L 19,42  M 19,41 L 20,41  M 19,42 L 19,43  M 23,42 L 23,43  M 25,42 L 25,43  M 27,42 L 27,43  M 30,41 L 31,41  M 31,41 L 32,41  M 32,41 L 33,41  M 33,41 L 33,42  M 33,42 L 33,43  M 36,41 L 37,41  M 37,41 L 37,42  M 37,42 L 37,43  M 39,41 L 39,42  M 39,42 L 39,43  M 42,41 L 43,41  M 43,41 L 43,42  M 43,41 L 44,41  M 43,42 L 43,43  M 44,41 L 45,41  M 45,41 L 46,41  M 5,43 L 6,43  M 15,43 L 15,44  M 17,43 L 17,44  M 19,43 L 20,43  M 23,43 L 24,43  M 25,43 L 24,43  M 25,43 L 25,44  M 27,43 L 27,44  M 33,43 L 34,43  M 37,43 L 36,43  M 37,43 L 37,44  M 39,43 L 39,44  M 39,43 L 40,43  M 43,43 L 43,44  M 1,43 L 1,44  M 1,43 L 2,43  M 1,44 L 1,45  M 2,43 L 3,43  M 3,43 L 3,44  M 3,44 L 3,45  M 6,43 L 7,43  M 7,43 L 8,43  M 8,43 L 9,43  M 9,43 L 10,43  M 10,43 L 11,43  M 11,43 L 12,43  M 12,43 L 13,43  M 13,43 L 13,44  M 13,44 L 13,45  M 15,44 L 15,45  M 17,44 L 17,45  M 20,43 L 21,43  M 21,43 L 21,44  M 21,44 L 21,45  M 25,44 L 25,45  M 27,44 L 27,45  M 29,43 L 29,44  M 29,43 L 30,43  M 29,44 L 29,45  M 30,43 L 31,43  M 34,43 L 35,43  M 35,43 L 36,43  M 37,44 L 37,45  M 39,44 L 39,45  M 40,43 L 41,43  M 43,44 L 43,45  M 45,43 L 45,44  M 45,44 L 45,45  M 49,43 L 49,44  M 1,45 L 1,46  M 3,45 L 3,46  M 13,45 L 12,45  M 15,45 L 15,46  M 17,45 L 17,46  M 21,45 L 20,45  M 25,45 L 24,45  M 27,45 L 27,46  M 29,45 L 29,46  M 37,45 L 37,46  M 39,45 L 40,45  M 43,45 L 42,45  M 45,45 L 45,46  M 1,46 L 1,47  M 3,46 L 3,47  M 5,45 L 5,46  M 5,45 L 6,45  M 5,46 L 5,47  M 6,45 L 7,45  M 7,45 L 8,45  M 8,45 L 9,45  M 9,45 L 10,45  M 10,45 L 11,45  M 11,45 L 12,45  M 15,46 L 15,47  M 17,46 L 17,47  M 19,45 L 19,46  M 19,45 L 20,45  M 19,46 L 19,47  M 23,45 L 23,46  M 23,45 L 24,45  M 23,46 L 23,47  M 27,46 L 27,47  M 29,46 L 29,47  M 31,45 L 31,46  M 31,45 L 32,45  M 31,46 L 31,47  M 32,45 L 33,45  M 33,45 L 34,45  M 34,45 L 35,45  M 35,45 L 35,46  M 35,46 L 35,47  M 37,46 L 37,47  M 40,45 L 41,45  M 41,45 L 42,45  M 45,46 L 45,47  M 1,47 L 1,48  M 3,47 L 4,47  M 5,47 L 4,47  M 5,47 L 5,48  M 17,47 L 17,48  M 19,47 L 20,47  M 23,47 L 24,47  M 27,47 L 27,48  M 29,47 L 29,48  M 31,47 L 32,47  M 35,47 L 35,48  M 37,47 L 37,48  M 45,47 L 44,47  M 45,47 L 45,48  M 1,48 L 1,49  M 5,48 L 5,49  M 7,47 L 8,47  M 8,47 L 9,47  M 9,47 L 10,47  M 10,47 L 11,47  M 11,47 L 11,48  M 11,47 L 12,47  M 11,48 L 11,49  M 12,47 L 13,47  M 13,47 L 13,48  M 13,48 L 13,49  M 17,48 L 17,49  M 20,47 L 21,47  M 21,47 L 21,48  M 21,48 L 21,49  M 24,47 L 25,47  M 25,47 L 25,48  M 25,48 L 25,49  M 27,48 L 27,49  M 29,48 L 29,49  M 32,47 L 33,47  M 33,47 L 33,48  M 33,48 L 33,49  M 35,48 L 35,49  M 37,48 L 37,49  M 39,47 L 39,48  M 39,47 L 40,47  M 39,48 L 39,49  M 40,47 L 41,47  M 41,47 L 42,47  M 42,47 L 43,47  M 43,47 L 44,47  M 45,48 L 45,49  M 47,47 L 47,48  M 47,48 L 47,49  M 1,49 L 2,49  M 5,49 L 6,49  M 11,49 L 10,49  M 13,49 L 14,49  M 17,49 L 16,49  M 17,49 L 18,49  M 21,49 L 22,49  M 25,49 L 24,49  M 27,49 L 28,49  M 29,49 L 28,49  M 29,49 L 30,49  M 33,49 L 32,49  M 35,49 L 36,49  M 37,49 L 36,49  M 39,49 L 40,49  M 45,49 L 46,49  M 47,49 L 46,49  M 47,49 L 48,49  M 2,49 L 3,49  M 6,49 L 7,49  M 7,49 L 8,49  M 8,49 L 9,49  M 9,49 L 10,49  M 14,49 L 15,49  M 15,49 L 16,49  M 18,49 L 19,49  M 22,49 L 23,49  M 23,49 L 24,49  M 30,49 L 31,49  M 31,49 L 32,49  M 40,49 L 41,49  M 41,49 L 42,49  M 42,49 L 43,49 " fill="none" stroke="white" stroke-linecap="square" stroke-linejoin="miter" transform="translate(0.5 0.5)" /><path d="M 0,0 L 0,1  M 0,0 L 1,0  M 0,1 L 0,2  M 1,0 L 2,0  M 2,0 L 3,0  M 3,0 L 4,0  M 4,0 L 5,0  M 5,0 L 6,0  M 6,0 L 7,0  M 7,0 L 8,0  M 8,0 L 8,1  M 8,0 L 9,0  M 8,1 L 8,2  M 9,0 L 10,0  M 10,0 L 11,0  M 11,0 L 12,0  M 12,0 L 13,0  M 13,0 L 14,0  M 14,0 L 14,1  M 14,0 L 15,0  M 14,1 L 14,2  M 15,0 L 16,0  M 16,0 L 17,0  M 17,0 L 18,0  M 18,0 L 19,0  M 19,0 L 20,0  M 20,0 L 21,0  M 21,0 L 22,0  M 22,0 L 23,0  M 23,0 L 24,0  M 24,0 L 24,1  M 24,0 L 25,0  M 24,1 L 24,2  M 25,0 L 26,0  M 26,0 L 27,0  M 27,0 L 28,0  M 28,0 L 28,1  M 28,0 L 29,0  M 28,1 L 28,2  M 29,0 L 30,0  M 30,0 L 31,0  M 31,0 L 32,0  M 32,0 L 32,1  M 32,0 L 33,0  M 32,1 L 32,2  M 33,0 L 34,0  M 36,0 L 37,0  M 37,0 L 38,0  M 38,0 L 39,0  M 39,0 L 40,0  M 40,0 L 41,0  M 41,0 L 42,0  M 42,0 L 43,0  M 43,0 L 44,0  M 44,0 L 45,0  M 45,0 L 46,0  M 46,0 L 47,0  M 47,0 L 48,0  M 48,0 L 49,0  M 49,0 L 50,0  M 50,0 L 50,1  M 50,1 L 50,2  M 0,2 L 0,3  M 14,2 L 15,2  M 24,2 L 24,3  M 28,2 L 29,2  M 32,2 L 32,3  M 50,2 L 49,2  M 50,2 L 50,3  M 0,3 L 0,4  M 2,2 L 2,3  M 2,2 L 3,2  M 2,3 L 2,4  M 3,2 L 4,2  M 4,2 L 5,2  M 5,2 L 6,2  M 6,2 L 6,3  M 6,3 L 6,4  M 10,2 L 10,3  M 10,3 L 10,4  M 12,2 L 12,3  M 12,3 L 12,4  M 15,2 L 16,2  M 18,2 L 18,3  M 18,2 L 19,2  M 18,3 L 18,4  M 19,2 L 20,2  M 20,2 L 21,2  M 21,2 L 22,2  M 24,3 L 24,4  M 26,2 L 26,3  M 26,3 L 26,4  M 29,2 L 30,2  M 32,3 L 32,4  M 34,2 L 34,3  M 34,2 L 35,2  M 34,3 L 34,4  M 35,2 L 36,2  M 36,2 L 37,2  M 37,2 L 38,2  M 38,2 L 38,3  M 38,2 L 39,2  M 38,3 L 38,4  M 39,2 L 40,2  M 40,2 L 41,2  M 41,2 L 42,2  M 44,2 L 45,2  M 45,2 L 46,2  M 46,2 L 47,2  M 47,2 L 48,2  M 48,2 L 49,2  M 50,3 L 50,4  M 0,4 L 0,5  M 2,4 L 3,4  M 6,4 L 6,5  M 6,4 L 7,4  M 10,4 L 9,4  M 10,4 L 10,5  M 12,4 L 13,4  M 18,4 L 17,4  M 24,4 L 23,4  M 24,4 L 25,4  M 26,4 L 25,4  M 32,4 L 31,4  M 32,4 L 32,5  M 38,4 L 38,5  M 38,4 L 39,4  M 50,4 L 50,5  M 0,5 L 0,6  M 3,4 L 4,4  M 6,5 L 6,6  M 7,4 L 8,4  M 8,4 L 9,4  M 10,5 L 10,6  M 13,4 L 14,4  M 14,4 L 14,5  M 14,4 L 15,4  M 14,5 L 14,6  M 15,4 L 16,4  M 16,4 L 17,4  M 20,4 L 20,5  M 20,4 L 21,4  M 20,5 L 20,6  M 21,4 L 22,4  M 22,4 L 23,4  M 28,4 L 28,5  M 28,4 L 29,4  M 28,5 L 28,6  M 29,4 L 30,4  M 30,4 L 31,4  M 32,5 L 32,6  M 36,4 L 36,5  M 36,5 L 36,6  M 38,5 L 38,6  M 39,4 L 40,4  M 40,4 L 41,4  M 41,4 L 42,4  M 42,4 L 43,4  M 43,4 L 44,4  M 44,4 L 45,4  M 45,4 L 46,4  M 46,4 L 46,5  M 46,4 L 47,4  M 46,5 L 46,6  M 47,4 L 48,4  M 50,5 L 50,6  M 0,6 L 0,7  M 0,6 L 1,6  M 6,6 L 5,6  M 10,6 L 11,6  M 14,6 L 15,6  M 20,6 L 19,6  M 20,6 L 20,7  M 28,6 L 27,6  M 28,6 L 28,7  M 28,6 L 29,6  M 32,6 L 33,6  M 36,6 L 35,6  M 36,6 L 36,7  M 46,6 L 46,7  M 50,6 L 50,7  M 0,7 L 0,8  M 1,6 L 2,6  M 2,6 L 3,6  M 3,6 L 4,6  M 4,6 L 5,6  M 8,6 L 8,7  M 8,7 L 8,8  M 11,6 L 12,6  M 12,6 L 12,7  M 12,7 L 12,8  M 15,6 L 16,6  M 16,6 L 16,7  M 16,7 L 16,8  M 18,6 L 18,7  M 18,6 L 19,6  M 18,7 L 18,8  M 20,7 L 20,8  M 22,6 L 23,6  M 23,6 L 24,6  M 24,6 L 25,6  M 25,6 L 26,6  M 26,6 L 27,6  M 28,7 L 28,8  M 29,6 L 30,6  M 33,6 L 34,6  M 34,6 L 35,6  M 36,7 L 36,8  M 40,6 L 40,7  M 40,6 L 41,6  M 40,7 L 40,8  M 41,6 L 42,6  M 42,6 L 43,6  M 43,6 L 44,6  M 44,6 L 44,7  M 44,7 L 44,8  M 46,7 L 46,8  M 48,6 L 48,7  M 48,7 L 48,8  M 50,7 L 50,8  M 0,8 L 0,9  M 8,8 L 7,8  M 8,8 L 8,9  M 8,8 L 9,8  M 12,8 L 11,8  M 12,8 L 13,8  M 16,8 L 16,9  M 18,8 L 18,9  M 28,8 L 28,9  M 36,8 L 37,8  M 40,8 L 39,8  M 40,8 L 40,9  M 44,8 L 43,8  M 44,8 L 44,9  M 46,8 L 46,9  M 48,8 L 48,9  M 50,8 L 50,9  M 0,9 L 0,10  M 2,8 L 3,8  M 3,8 L 4,8  M 4,8 L 4,9  M 4,9 L 4,10  M 6,8 L 7,8  M 8,9 L 8,10  M 9,8 L 10,8  M 10,8 L 11,8  M 13,8 L 14,8  M 16,9 L 16,10  M 18,9 L 18,10  M 22,8 L 22,9  M 22,8 L 23,8  M 22,9 L 22,10  M 23,8 L 24,8  M 24,8 L 25,8  M 25,8 L 26,8  M 28,9 L 28,10  M 30,8 L 30,9  M 30,8 L 31,8  M 30,9 L 30,10  M 31,8 L 32,8  M 32,8 L 33,8  M 33,8 L 34,8  M 34,8 L 34,9  M 34,9 L 34,10  M 37,8 L 38,8  M 38,8 L 38,9  M 38,8 L 39,8  M 38,9 L 38,10  M 40,9 L 40,10  M 42,8 L 43,8  M 44,9 L 44,10  M 46,9 L 46,10  M 48,9 L 48,10  M 50,9 L 50,10  M 0,10 L 0,11  M 0,10 L 1,10  M 4,10 L 5,10  M 8,10 L 8,11  M 16,10 L 15,10  M 16,10 L 16,11  M 18,10 L 18,11  M 22,10 L 21,10  M 22,10 L 22,11  M 28,10 L 27,10  M 28,10 L 28,11  M 30,10 L 30,11  M 34,10 L 34,11  M 34,10 L 35,10  M 40,10 L 41,10  M 44,10 L 44,11  M 46,10 L 46,11  M 48,10 L 49,10  M 50,10 L 49,10  M 50,10 L 50,11  M 0,11 L 0,12  M 1,10 L 2,10  M 5,10 L 6,10  M 6,10 L 6,11  M 6,11 L 6,12  M 8,11 L 8,12  M 10,10 L 10,11  M 10,10 L 11,10  M 10,11 L 10,12  M 11,10 L 12,10  M 12,10 L 13,10  M 13,10 L 14,10  M 14,10 L 15,10  M 16,11 L 16,12  M 18,11 L 18,12  M 20,10 L 21,10  M 22,11 L 22,12  M 24,10 L 24,11  M 24,10 L 25,10  M 24,11 L 24,12  M 25,10 L 26,10  M 26,10 L 27,10  M 28,11 L 28,12  M 30,11 L 30,12  M 32,10 L 32,11  M 32,11 L 32,12  M 34,11 L 34,12  M 35,10 L 36,10  M 41,10 L 42,10  M 42,10 L 42,11  M 42,11 L 42,12  M 44,11 L 44,12  M 46,11 L 46,12  M 50,11 L 50,12  M 0,12 L 0,13  M 6,12 L 5,12  M 8,12 L 8,13  M 10,12 L 10,13  M 10,12 L 11,12  M 18,12 L 18,13  M 22,12 L 22,13  M 32,12 L 32,13  M 34,12 L 34,13  M 44,12 L 44,13  M 46,12 L 46,13  M 46,12 L 47,12  M 50,12 L 50,13  M 0,13 L 0,14  M 2,12 L 3,12  M 3,12 L 4,12  M 4,12 L 4,13  M 4,12 L 5,12  M 4,13 L 4,14  M 8,13 L 8,14  M 10,13 L 10,14  M 11,12 L 12,12  M 12,12 L 13,12  M 13,12 L 14,12  M 14,12 L 14,13  M 14,13 L 14,14  M 18,13 L 18,14  M 20,12 L 20,13  M 20,13 L 20,14  M 22,13 L 22,14  M 26,12 L 26,13  M 26,13 L 26,14  M 32,13 L 32,14  M 34,13 L 34,14  M 36,12 L 36,13  M 36,12 L 37,12  M 36,13 L 36,14  M 37,12 L 38,12  M 38,12 L 39,12  M 39,12 L 40,12  M 40,12 L 40,13  M 40,13 L 40,14  M 44,13 L 44,14  M 46,13 L 46,14  M 47,12 L 48,12  M 50,13 L 50,14  M 0,14 L 0,15  M 4,14 L 3,14  M 8,14 L 7,14  M 14,14 L 14,15  M 14,14 L 15,14  M 18,14 L 17,14  M 18,14 L 18,15  M 18,14 L 19,14  M 20,14 L 19,14  M 22,14 L 22,15  M 22,14 L 23,14  M 26,14 L 25,14  M 26,14 L 27,14  M 32,14 L 32,15  M 32,14 L 33,14  M 34,14 L 33,14  M 36,14 L 36,15  M 40,14 L 39,14  M 40,14 L 41,14  M 44,14 L 43,14  M 46,14 L 46,15  M 50,14 L 49,14  M 50,14 L 50,15  M 0,15 L 0,16  M 2,14 L 2,15  M 2,14 L 3,14  M 2,15 L 2,16  M 6,14 L 6,15  M 6,14 L 7,14  M 6,15 L 6,16  M 12,14 L 12,15  M 12,15 L 12,16  M 14,15 L 14,16  M 15,14 L 16,14  M 16,14 L 17,14  M 18,15 L 18,16  M 22,15 L 22,16  M 23,14 L 24,14  M 24,14 L 25,14  M 27,14 L 28,14  M 28,14 L 29,14  M 29,14 L 30,14  M 30,14 L 30,15  M 30,15 L 30,16  M 32,15 L 32,16  M 36,15 L 36,16  M 38,14 L 39,14  M 41,14 L 42,14  M 42,14 L 43,14  M 46,15 L 46,16  M 48,14 L 49,14  M 50,15 L 50,16  M 0,16 L 0,17  M 0,16 L 1,16  M 2,16 L 1,16  M 6,16 L 6,17  M 12,16 L 11,16  M 12,16 L 12,17  M 14,16 L 15,16  M 18,16 L 18,17  M 22,16 L 21,16  M 22,16 L 22,17  M 30,16 L 30,17  M 32,16 L 32,17  M 36,16 L 35,16  M 46,16 L 46,17  M 46,16 L 47,16  M 50,16 L 50,17  M 0,17 L 0,18  M 4,16 L 4,17  M 4,17 L 4,18  M 6,17 L 6,18  M 8,16 L 8,17  M 8,16 L 9,16  M 8,17 L 8,18  M 9,16 L 10,16  M 10,16 L 11,16  M 12,17 L 12,18  M 15,16 L 16,16  M 16,16 L 16,17  M 16,17 L 16,18  M 18,17 L 18,18  M 20,16 L 21,16  M 22,17 L 22,18  M 24,16 L 25,16  M 25,16 L 26,16  M 26,16 L 26,17  M 26,16 L 27,16  M 26,17 L 26,18  M 27,16 L 28,16  M 30,17 L 30,18  M 32,17 L 32,18  M 34,16 L 34,17  M 34,16 L 35,16  M 34,17 L 34,18  M 38,16 L 39,16  M 39,16 L 40,16  M 40,16 L 40,17  M 40,16 L 41,16  M 40,17 L 40,18  M 41,16 L 42,16  M 42,16 L 43,16  M 43,16 L 44,16  M 44,16 L 44,17  M 44,17 L 44,18  M 46,17 L 46,18  M 47,16 L 48,16  M 50,17 L 50,18  M 0,18 L 0,19  M 4,18 L 3,18  M 4,18 L 4,19  M 4,18 L 5,18  M 6,18 L 5,18  M 8,18 L 8,19  M 8,18 L 9,18  M 12,18 L 13,18  M 18,18 L 19,18  M 22,18 L 22,19  M 22,18 L 23,18  M 26,18 L 26,19  M 30,18 L 29,18  M 30,18 L 30,19  M 30,18 L 31,18  M 32,18 L 31,18  M 34,18 L 34,19  M 40,18 L 39,18  M 44,18 L 44,19  M 46,18 L 47,18  M 50,18 L 49,18  M 50,18 L 50,19  M 0,19 L 0,20  M 2,18 L 2,19  M 2,18 L 3,18  M 2,19 L 2,20  M 4,19 L 4,20  M 8,19 L 8,20  M 9,18 L 10,18  M 13,18 L 14,18  M 14,18 L 14,19  M 14,19 L 14,20  M 19,18 L 20,18  M 22,19 L 22,20  M 23,18 L 24,18  M 26,19 L 26,20  M 28,18 L 29,18  M 30,19 L 30,20  M 34,19 L 34,20  M 36,18 L 36,19  M 36,18 L 37,18  M 36,19 L 36,20  M 37,18 L 38,18  M 38,18 L 39,18  M 42,18 L 42,19  M 42,19 L 42,20  M 44,19 L 44,20  M 47,18 L 48,18  M 48,18 L 49,18  M 50,19 L 50,20  M 0,20 L 0,21  M 2,20 L 2,21  M 4,20 L 4,21  M 8,20 L 7,20  M 14,20 L 14,21  M 14,20 L 15,20  M 22,20 L 21,20  M 22,20 L 22,21  M 26,20 L 25,20  M 26,20 L 27,20  M 30,20 L 30,21  M 34,20 L 33,20  M 34,20 L 34,21  M 42,20 L 41,20  M 42,20 L 43,20  M 44,20 L 43,20  M 44,20 L 45,20  M 50,20 L 50,21  M 0,21 L 0,22  M 2,21 L 2,22  M 4,21 L 4,22  M 6,20 L 7,20  M 10,20 L 10,21  M 10,20 L 11,20  M 10,21 L 10,22  M 11,20 L 12,20  M 12,20 L 12,21  M 12,21 L 12,22  M 14,21 L 14,22  M 15,20 L 16,20  M 16,20 L 17,20  M 17,20 L 18,20  M 18,20 L 18,21  M 18,20 L 19,20  M 18,21 L 18,22  M 19,20 L 20,20  M 20,20 L 21,20  M 22,21 L 22,22  M 24,20 L 25,20  M 27,20 L 28,20  M 28,20 L 28,21  M 28,21 L 28,22  M 30,21 L 30,22  M 32,20 L 33,20  M 34,21 L 34,22  M 38,20 L 38,21  M 38,20 L 39,20  M 38,21 L 38,22  M 39,20 L 40,20  M 40,20 L 41,20  M 45,20 L 46,20  M 48,20 L 48,21  M 48,21 L 48,22  M 50,21 L 50,22  M 0,22 L 0,23  M 2,22 L 2,23  M 4,22 L 4,23  M 4,22 L 5,22  M 10,22 L 9,22  M 10,22 L 10,23  M 14,22 L 14,23  M 18,22 L 17,22  M 18,22 L 18,23  M 22,22 L 22,23  M 22,22 L 23,22  M 28,22 L 28,23  M 30,22 L 30,23  M 30,22 L 31,22  M 34,22 L 34,23  M 38,22 L 38,23  M 38,22 L 39,22  M 48,22 L 47,22  M 50,22 L 50,23  M 0,23 L 0,24  M 2,23 L 2,24  M 4,23 L 4,24  M 5,22 L 6,22  M 6,22 L 7,22  M 7,22 L 8,22  M 8,22 L 8,23  M 8,22 L 9,22  M 8,23 L 8,24  M 10,23 L 10,24  M 14,23 L 14,24  M 16,22 L 17,22  M 18,23 L 18,24  M 20,22 L 20,23  M 20,23 L 20,24  M 22,23 L 22,24  M 23,22 L 24,22  M 24,22 L 25,22  M 25,22 L 26,22  M 28,23 L 28,24  M 30,23 L 30,24  M 31,22 L 32,22  M 32,22 L 32,23  M 32,23 L 32,24  M 34,23 L 34,24  M 36,22 L 36,23  M 36,23 L 36,24  M 38,23 L 38,24  M 39,22 L 40,22  M 40,22 L 41,22  M 41,22 L 42,22  M 42,22 L 42,23  M 42,23 L 42,24  M 44,22 L 45,22  M 45,22 L 46,22  M 46,22 L 46,23  M 46,22 L 47,22  M 46,23 L 46,24  M 50,23 L 50,24  M 0,24 L 0,25  M 4,24 L 4,25  M 8,24 L 8,25  M 10,24 L 11,24  M 14,24 L 13,24  M 18,24 L 18,25  M 20,24 L 20,25  M 28,24 L 27,24  M 30,24 L 30,25  M 34,24 L 34,25  M 36,24 L 36,25  M 38,24 L 38,25  M 42,24 L 43,24  M 46,24 L 46,25  M 50,24 L 50,25  M 0,25 L 0,26  M 4,25 L 4,26  M 6,24 L 6,25  M 6,25 L 6,26  M 8,25 L 8,26  M 11,24 L 12,24  M 12,24 L 13,24  M 16,24 L 16,25  M 16,25 L 16,26  M 18,25 L 18,26  M 20,25 L 20,26  M 24,24 L 24,25  M 24,25 L 24,26  M 26,24 L 26,25  M 26,24 L 27,24  M 26,25 L 26,26  M 30,25 L 30,26  M 34,25 L 34,26  M 36,25 L 36,26  M 38,25 L 38,26  M 40,24 L 40,25  M 40,25 L 40,26  M 43,24 L 44,24  M 44,24 L 44,25  M 44,25 L 44,26  M 46,25 L 46,26  M 48,24 L 48,25  M 48,25 L 48,26  M 50,25 L 50,26  M 0,26 L 0,27  M 0,26 L 1,26  M 6,26 L 6,27  M 8,26 L 8,27  M 16,26 L 15,26  M 16,26 L 16,27  M 18,26 L 19,26  M 20,26 L 19,26  M 20,26 L 20,27  M 20,26 L 21,26  M 24,26 L 23,26  M 24,26 L 24,27  M 26,26 L 26,27  M 30,26 L 29,26  M 30,26 L 30,27  M 34,26 L 33,26  M 34,26 L 35,26  M 36,26 L 35,26  M 36,26 L 36,27  M 38,26 L 38,27  M 40,26 L 41,26  M 46,26 L 46,27  M 48,26 L 48,27  M 50,26 L 50,27  M 0,27 L 0,28  M 1,26 L 2,26  M 6,27 L 6,28  M 8,27 L 8,28  M 10,26 L 11,26  M 11,26 L 12,26  M 12,26 L 13,26  M 13,26 L 14,26  M 14,26 L 15,26  M 16,27 L 16,28  M 20,27 L 20,28  M 21,26 L 22,26  M 22,26 L 23,26  M 24,27 L 24,28  M 26,27 L 26,28  M 28,26 L 29,26  M 30,27 L 30,28  M 32,26 L 32,27  M 32,26 L 33,26  M 32,27 L 32,28  M 36,27 L 36,28  M 38,27 L 38,28  M 41,26 L 42,26  M 42,26 L 42,27  M 42,27 L 42,28  M 46,27 L 46,28  M 48,27 L 48,28  M 50,27 L 50,28  M 0,28 L 0,29  M 0,28 L 1,28  M 6,28 L 7,28  M 8,28 L 7,28  M 8,28 L 9,28  M 16,28 L 17,28  M 26,28 L 26,29  M 26,28 L 27,28  M 30,28 L 30,29  M 36,28 L 36,29  M 36,28 L 37,28  M 38,28 L 37,28  M 38,28 L 39,28  M 42,28 L 42,29  M 46,28 L 45,28  M 48,28 L 49,28  M 50,28 L 49,28  M 50,28 L 50,29  M 0,29 L 0,30  M 1,28 L 2,28  M 2,28 L 3,28  M 3,28 L 4,28  M 4,28 L 4,29  M 4,29 L 4,30  M 9,28 L 10,28  M 10,28 L 10,29  M 10,28 L 11,28  M 10,29 L 10,30  M 11,28 L 12,28  M 12,28 L 13,28  M 13,28 L 14,28  M 17,28 L 18,28  M 18,28 L 18,29  M 18,29 L 18,30  M 22,28 L 22,29  M 22,29 L 22,30  M 26,29 L 26,30  M 27,28 L 28,28  M 28,28 L 28,29  M 28,29 L 28,30  M 30,29 L 30,30  M 34,28 L 34,29  M 34,29 L 34,30  M 36,29 L 36,30  M 39,28 L 40,28  M 40,28 L 40,29  M 40,29 L 40,30  M 42,29 L 42,30  M 44,28 L 44,29  M 44,28 L 45,28  M 44,29 L 44,30  M 50,29 L 50,30  M 0,30 L 0,31  M 4,30 L 3,30  M 4,30 L 5,30  M 10,30 L 10,31  M 18,30 L 17,30  M 18,30 L 19,30  M 22,30 L 21,30  M 26,30 L 25,30  M 28,30 L 28,31  M 30,30 L 31,30  M 34,30 L 35,30  M 36,30 L 35,30  M 36,30 L 36,31  M 42,30 L 42,31  M 44,30 L 45,30  M 50,30 L 50,31  M 0,31 L 0,32  M 2,30 L 2,31  M 2,30 L 3,30  M 2,31 L 2,32  M 5,30 L 6,30  M 8,30 L 8,31  M 8,31 L 8,32  M 10,31 L 10,32  M 12,30 L 12,31  M 12,31 L 12,32  M 14,30 L 14,31  M 14,30 L 15,30  M 14,31 L 14,32  M 15,30 L 16,30  M 16,30 L 17,30  M 19,30 L 20,30  M 20,30 L 21,30  M 24,30 L 24,31  M 24,30 L 25,30  M 24,31 L 24,32  M 28,31 L 28,32  M 31,30 L 32,30  M 32,30 L 32,31  M 32,31 L 32,32  M 36,31 L 36,32  M 38,30 L 38,31  M 38,31 L 38,32  M 42,31 L 42,32  M 45,30 L 46,30  M 46,30 L 46,31  M 46,30 L 47,30  M 46,31 L 46,32  M 47,30 L 48,30  M 50,31 L 50,32  M 0,32 L 0,33  M 8,32 L 7,32  M 8,32 L 8,33  M 12,32 L 12,33  M 14,32 L 15,32  M 24,32 L 23,32  M 24,32 L 24,33  M 28,32 L 27,32  M 28,32 L 29,32  M 32,32 L 32,33  M 32,32 L 33,32  M 36,32 L 36,33  M 38,32 L 38,33  M 38,32 L 39,32  M 42,32 L 41,32  M 42,32 L 43,32  M 46,32 L 46,33  M 50,32 L 49,32  M 50,32 L 50,33  M 0,33 L 0,34  M 4,32 L 4,33  M 4,32 L 5,32  M 4,33 L 4,34  M 5,32 L 6,32  M 6,32 L 7,32  M 8,33 L 8,34  M 12,33 L 12,34  M 15,32 L 16,32  M 16,32 L 17,32  M 17,32 L 18,32  M 18,32 L 18,33  M 18,32 L 19,32  M 18,33 L 18,34  M 19,32 L 20,32  M 20,32 L 21,32  M 21,32 L 22,32  M 22,32 L 23,32  M 24,33 L 24,34  M 26,32 L 26,33  M 26,32 L 27,32  M 26,33 L 26,34  M 29,32 L 30,32  M 32,33 L 32,34  M 33,32 L 34,32  M 36,33 L 36,34  M 38,33 L 38,34  M 39,32 L 40,32  M 40,32 L 40,33  M 40,32 L 41,32  M 40,33 L 40,34  M 43,32 L 44,32  M 44,32 L 44,33  M 44,33 L 44,34  M 46,33 L 46,34  M 48,32 L 49,32  M 50,33 L 50,34  M 0,34 L 0,35  M 4,34 L 3,34  M 4,34 L 5,34  M 8,34 L 9,34  M 12,34 L 11,34  M 12,34 L 12,35  M 12,34 L 13,34  M 18,34 L 18,35  M 24,34 L 23,34  M 24,34 L 24,35  M 32,34 L 31,34  M 32,34 L 32,35  M 38,34 L 38,35  M 44,34 L 44,35  M 46,34 L 46,35  M 46,34 L 47,34  M 50,34 L 50,35  M 0,35 L 0,36  M 2,34 L 3,34  M 5,34 L 6,34  M 6,34 L 6,35  M 6,35 L 6,36  M 9,34 L 10,34  M 10,34 L 11,34  M 12,35 L 12,36  M 13,34 L 14,34  M 14,34 L 15,34  M 15,34 L 16,34  M 16,34 L 16,35  M 16,35 L 16,36  M 18,35 L 18,36  M 20,34 L 21,34  M 21,34 L 22,34  M 22,34 L 23,34  M 24,35 L 24,36  M 28,34 L 29,34  M 29,34 L 30,34  M 30,34 L 30,35  M 30,34 L 31,34  M 30,35 L 30,36  M 32,35 L 32,36  M 34,34 L 34,35  M 34,35 L 34,36  M 38,35 L 38,36  M 42,34 L 42,35  M 42,35 L 42,36  M 44,35 L 44,36  M 46,35 L 46,36  M 47,34 L 48,34  M 50,35 L 50,36  M 0,36 L 0,37  M 0,36 L 1,36  M 6,36 L 7,36  M 12,36 L 11,36  M 18,36 L 18,37  M 18,36 L 19,36  M 24,36 L 24,37  M 24,36 L 25,36  M 30,36 L 30,37  M 32,36 L 32,37  M 34,36 L 35,36  M 38,36 L 38,37  M 38,36 L 39,36  M 42,36 L 41,36  M 44,36 L 44,37  M 44,36 L 45,36  M 46,36 L 45,36  M 50,36 L 50,37  M 0,37 L 0,38  M 1,36 L 2,36  M 2,36 L 3,36  M 3,36 L 4,36  M 4,36 L 4,37  M 4,37 L 4,38  M 7,36 L 8,36  M 8,36 L 8,37  M 8,37 L 8,38  M 10,36 L 10,37  M 10,36 L 11,36  M 10,37 L 10,38  M 14,36 L 14,37  M 14,37 L 14,38  M 18,37 L 18,38  M 19,36 L 20,36  M 20,36 L 21,36  M 21,36 L 22,36  M 22,36 L 22,37  M 22,37 L 22,38  M 24,37 L 24,38  M 25,36 L 26,36  M 26,36 L 27,36  M 27,36 L 28,36  M 28,36 L 28,37  M 28,37 L 28,38  M 30,37 L 30,38  M 32,37 L 32,38  M 35,36 L 36,36  M 36,36 L 36,37  M 36,37 L 36,38  M 38,37 L 38,38  M 39,36 L 40,36  M 40,36 L 41,36  M 44,37 L 44,38  M 48,36 L 48,37  M 48,37 L 48,38  M 50,37 L 50,38  M 0,38 L 0,39  M 4,38 L 3,38  M 4,38 L 5,38  M 8,38 L 8,39  M 10,38 L 10,39  M 14,38 L 13,38  M 14,38 L 15,38  M 18,38 L 17,38  M 22,38 L 22,39  M 24,38 L 24,39  M 28,38 L 27,38  M 28,38 L 28,39  M 30,38 L 30,39  M 32,38 L 33,38  M 36,38 L 36,39  M 38,38 L 38,39  M 44,38 L 43,38  M 48,38 L 49,38  M 50,38 L 49,38  M 50,38 L 50,39  M 0,39 L 0,40  M 2,38 L 2,39  M 2,38 L 3,38  M 2,39 L 2,40  M 5,38 L 6,38  M 8,39 L 8,40  M 10,39 L 10,40  M 12,38 L 13,38  M 15,38 L 16,38  M 16,38 L 17,38  M 20,38 L 20,39  M 20,39 L 20,40  M 22,39 L 22,40  M 24,39 L 24,40  M 26,38 L 26,39  M 26,38 L 27,38  M 26,39 L 26,40  M 28,39 L 28,40  M 30,39 L 30,40  M 33,38 L 34,38  M 36,39 L 36,40  M 38,39 L 38,40  M 40,38 L 41,38  M 41,38 L 42,38  M 42,38 L 42,39  M 42,38 L 43,38  M 42,39 L 42,40  M 46,38 L 46,39  M 46,39 L 46,40  M 50,39 L 50,40  M 0,40 L 0,41  M 8,40 L 7,40  M 10,40 L 11,40  M 20,40 L 19,40  M 22,40 L 22,41  M 24,40 L 24,41  M 26,40 L 26,41  M 28,40 L 28,41  M 30,40 L 31,40  M 36,40 L 37,40  M 38,40 L 37,40  M 38,40 L 38,41  M 38,40 L 39,40  M 42,40 L 43,40  M 46,40 L 45,40  M 46,40 L 47,40  M 50,40 L 50,41  M 0,41 L 0,42  M 4,40 L 5,40  M 5,40 L 6,40  M 6,40 L 7,40  M 11,40 L 12,40  M 12,40 L 13,40  M 13,40 L 14,40  M 14,40 L 14,41  M 14,40 L 15,40  M 14,41 L 14,42  M 15,40 L 16,40  M 16,40 L 17,40  M 17,40 L 18,40  M 18,40 L 18,41  M 18,40 L 19,40  M 18,41 L 18,42  M 22,41 L 22,42  M 24,41 L 24,42  M 26,41 L 26,42  M 28,41 L 28,42  M 31,40 L 32,40  M 32,40 L 33,40  M 33,40 L 34,40  M 34,40 L 34,41  M 34,41 L 34,42  M 38,41 L 38,42  M 39,40 L 40,40  M 40,40 L 40,41  M 40,41 L 40,42  M 43,40 L 44,40  M 44,40 L 45,40  M 47,40 L 48,40  M 50,41 L 50,42  M 0,42 L 0,43  M 0,42 L 1,42  M 14,42 L 13,42  M 14,42 L 14,43  M 18,42 L 18,43  M 22,42 L 21,42  M 22,42 L 22,43  M 26,42 L 26,43  M 28,42 L 28,43  M 28,42 L 29,42  M 34,42 L 35,42  M 38,42 L 38,43  M 40,42 L 41,42  M 50,42 L 49,42  M 50,42 L 50,43  M 0,43 L 0,44  M 1,42 L 2,42  M 2,42 L 3,42  M 3,42 L 4,42  M 4,42 L 4,43  M 4,43 L 4,44  M 6,42 L 7,42  M 7,42 L 8,42  M 8,42 L 9,42  M 9,42 L 10,42  M 10,42 L 11,42  M 11,42 L 12,42  M 12,42 L 13,42  M 14,43 L 14,44  M 16,42 L 16,43  M 16,43 L 16,44  M 18,43 L 18,44  M 20,42 L 21,42  M 22,43 L 22,44  M 26,43 L 26,44  M 28,43 L 28,44  M 29,42 L 30,42  M 30,42 L 31,42  M 31,42 L 32,42  M 32,42 L 32,43  M 32,43 L 32,44  M 35,42 L 36,42  M 38,43 L 38,44  M 41,42 L 42,42  M 42,42 L 42,43  M 42,43 L 42,44  M 44,42 L 44,43  M 44,42 L 45,42  M 44,43 L 44,44  M 45,42 L 46,42  M 46,42 L 46,43  M 46,43 L 46,44  M 48,42 L 48,43  M 48,42 L 49,42  M 48,43 L 48,44  M 50,43 L 50,44  M 0,44 L 0,45  M 4,44 L 4,45  M 4,44 L 5,44  M 14,44 L 14,45  M 16,44 L 16,45  M 18,44 L 18,45  M 18,44 L 19,44  M 22,44 L 22,45  M 22,44 L 23,44  M 26,44 L 26,45  M 28,44 L 28,45  M 32,44 L 31,44  M 32,44 L 33,44  M 38,44 L 38,45  M 42,44 L 41,44  M 44,44 L 44,45  M 46,44 L 46,45  M 50,44 L 50,45  M 0,45 L 0,46  M 2,44 L 2,45  M 2,45 L 2,46  M 4,45 L 4,46  M 5,44 L 6,44  M 6,44 L 7,44  M 7,44 L 8,44  M 8,44 L 9,44  M 9,44 L 10,44  M 10,44 L 11,44  M 11,44 L 12,44  M 14,45 L 14,46  M 16,45 L 16,46  M 18,45 L 18,46  M 19,44 L 20,44  M 22,45 L 22,46  M 23,44 L 24,44  M 26,45 L 26,46  M 28,45 L 28,46  M 30,44 L 30,45  M 30,44 L 31,44  M 30,45 L 30,46  M 33,44 L 34,44  M 34,44 L 35,44  M 35,44 L 36,44  M 36,44 L 36,45  M 36,45 L 36,46  M 38,45 L 38,46  M 40,44 L 41,44  M 44,45 L 44,46  M 46,45 L 46,46  M 50,45 L 50,46  M 0,46 L 0,47  M 2,46 L 2,47  M 14,46 L 13,46  M 14,46 L 14,47  M 16,46 L 16,47  M 18,46 L 18,47  M 22,46 L 21,46  M 22,46 L 22,47  M 26,46 L 25,46  M 26,46 L 26,47  M 28,46 L 28,47  M 30,46 L 30,47  M 36,46 L 36,47  M 38,46 L 38,47  M 38,46 L 39,46  M 44,46 L 43,46  M 46,46 L 46,47  M 46,46 L 47,46  M 50,46 L 50,47  M 0,47 L 0,48  M 2,47 L 2,48  M 6,46 L 6,47  M 6,46 L 7,46  M 6,47 L 6,48  M 7,46 L 8,46  M 8,46 L 9,46  M 9,46 L 10,46  M 10,46 L 11,46  M 11,46 L 12,46  M 12,46 L 13,46  M 14,47 L 14,48  M 16,47 L 16,48  M 18,47 L 18,48  M 20,46 L 21,46  M 22,47 L 22,48  M 24,46 L 25,46  M 26,47 L 26,48  M 28,47 L 28,48  M 30,47 L 30,48  M 32,46 L 33,46  M 33,46 L 34,46  M 34,46 L 34,47  M 34,47 L 34,48  M 36,47 L 36,48  M 38,47 L 38,48  M 39,46 L 40,46  M 40,46 L 41,46  M 41,46 L 42,46  M 42,46 L 43,46  M 46,47 L 46,48  M 47,46 L 48,46  M 48,46 L 48,47  M 48,47 L 48,48  M 50,47 L 50,48  M 0,48 L 0,49  M 2,48 L 3,48  M 6,48 L 7,48  M 14,48 L 15,48  M 16,48 L 15,48  M 18,48 L 19,48  M 22,48 L 23,48  M 26,48 L 26,49  M 30,48 L 31,48  M 34,48 L 34,49  M 38,48 L 38,49  M 50,48 L 50,49  M 0,49 L 0,50  M 3,48 L 4,48  M 4,48 L 4,49  M 4,49 L 4,50  M 7,48 L 8,48  M 8,48 L 9,48  M 9,48 L 10,48  M 12,48 L 12,49  M 12,49 L 12,50  M 19,48 L 20,48  M 20,48 L 20,49  M 20,49 L 20,50  M 23,48 L 24,48  M 26,49 L 26,50  M 31,48 L 32,48  M 34,49 L 34,50  M 38,49 L 38,50  M 40,48 L 41,48  M 41,48 L 42,48  M 42,48 L 43,48  M 43,48 L 44,48  M 44,48 L 44,49  M 44,49 L 44,50  M 50,49 L 50,50  M 0,50 L 1,50  M 4,50 L 3,50  M 4,50 L 5,50  M 12,50 L 11,50  M 12,50 L 13,50  M 20,50 L 19,50  M 20,50 L 21,50  M 26,50 L 25,50  M 26,50 L 27,50  M 34,50 L 33,50  M 34,50 L 35,50  M 38,50 L 37,50  M 38,50 L 39,50  M 44,50 L 43,50  M 44,50 L 45,50  M 1,50 L 2,50  M 2,50 L 3,50  M 5,50 L 6,50  M 6,50 L 7,50  M 7,50 L 8,50  M 8,50 L 9,50  M 9,50 L 10,50  M 10,50 L 11,50  M 13,50 L 14,50  M 14,50 L 15,50  M 15,50 L 16,50  M 16,50 L 17,50  M 17,50 L 18,50  M 18,50 L 19,50  M 21,50 L 22,50  M 22,50 L 23,50  M 23,50 L 24,50  M 24,50 L 25,50  M 27,50 L 28,50  M 28,50 L 29,50  M 29,50 L 30,50  M 30,50 L 31,50  M 31,50 L 32,50  M 32,50 L 33,50  M 35,50 L 36,50  M 36,50 L 37,50  M 39,50 L 40,50  M 40,50 L 41,50  M 41,50 L 42,50  M 42,50 L 43,50  M 45,50 L 46,50  M 46,50 L 47,50  M 47,50 L 48,50 " fill="none" stroke="black" stroke-linecap="square" stroke-linejoin="miter" transform="translate(0.5 0.5)" /><path d="M 35,0 L 35,1  M 35,1 L 34,1  M 33,1 L 33,2  M 33,1 L 34,1  M 33,2 L 33,3  M 33,3 L 33,4  M 33,4 L 33,5  M 35,3 L 35,4  M 35,3 L 36,3  M 35,4 L 35,5  M 36,3 L 37,3  M 37,3 L 37,4  M 37,4 L 37,5  M 33,5 L 34,5  M 35,5 L 34,5  M 37,5 L 37,6  M 37,6 L 37,7  M 39,5 L 39,6  M 39,5 L 40,5  M 39,6 L 39,7  M 40,5 L 41,5  M 41,5 L 42,5  M 42,5 L 43,5  M 43,5 L 44,5  M 44,5 L 45,5  M 45,5 L 45,6  M 45,6 L 45,7  M 37,7 L 38,7  M 39,7 L 38,7  M 45,7 L 45,8  M 45,8 L 45,9  M 45,9 L 45,10  M 45,10 L 45,11  M 45,11 L 45,12  M 45,12 L 45,13  M 45,13 L 45,14  M 45,14 L 45,15  M 45,15 L 45,16  M 45,16 L 45,17  M 45,17 L 45,18  M 45,18 L 45,19  M 45,19 L 46,19  M 46,19 L 47,19  M 47,19 L 48,19  M 48,19 L 49,19  M 49,19 L 49,20  M 49,20 L 49,21  M 49,21 L 49,22  M 49,22 L 49,23  M 49,23 L 48,23  M 47,23 L 47,24  M 47,23 L 48,23  M 47,24 L 47,25  M 47,25 L 47,26  M 47,26 L 47,27  M 47,27 L 47,28  M 47,28 L 47,29  M 47,29 L 48,29  M 48,29 L 49,29  M 49,29 L 49,30  M 49,30 L 49,31  M 49,31 L 48,31  M 47,31 L 47,32  M 47,31 L 48,31  M 47,32 L 47,33  M 47,33 L 48,33  M 48,33 L 49,33  M 49,33 L 49,34  M 49,34 L 49,35  M 49,35 L 48,35  M 47,35 L 47,36  M 47,35 L 48,35  M 47,36 L 47,37  M 47,37 L 47,38  M 47,38 L 47,39  M 47,39 L 48,39  M 48,39 L 49,39  M 49,39 L 49,40  M 49,40 L 49,41  M 49,41 L 48,41  M 47,41 L 47,42  M 47,41 L 48,41  M 47,42 L 47,43  M 47,43 L 47,44  M 47,44 L 47,45  M 47,45 L 48,45  M 48,45 L 49,45  M 49,45 L 49,46  M 49,46 L 49,47  M 49,47 L 49,48  M 49,48 L 49,49  M 49,49 L 49,50 " fill="none" stroke="red" stroke-linecap="square" stroke-linejoin="miter" transform="translate(0.5 0.5)" /></svg>